<?xml version="1.0" standalone="no"?>
<!DOCTYPE svg PUBLIC "-//W3C//DTD SVG 20010904//EN"
 "http://www.w3.org/TR/2001/REC-SVG-20010904/DTD/svg10.dtd">
<svg version="1.0" xmlns="http://www.w3.org/2000/svg"
 width="1408.000000pt" height="1408.000000pt" viewBox="0 0 1408.000000 1408.000000"
 preserveAspectRatio="xMidYMid meet">
<metadata>
Created by potrace 1.11, written by Peter Selinger 2001-2013
</metadata>
<g transform="translate(0.000000,1408.000000) scale(0.100000,-0.100000)"
fill="#000000" stroke="none">
<path d="M4242 13918 c0 -90 -1 -167 -2 -173 -1 -5 -2 -14 -1 -20 6 -30 2
-875 -4 -884 -3 -6 -2 -11 2 -11 5 0 7 -15 5 -33 -3 -31 -2 -33 25 -32 15 1
34 -3 41 -8 6 -5 12 -6 12 -1 0 5 49 9 110 9 60 0 110 -4 110 -8 0 -5 5 -5 12
-1 16 10 148 11 148 1 0 -5 5 -5 12 -1 15 10 221 10 236 0 7 -4 12 -4 12 1 0
4 79 8 175 8 96 0 175 -4 175 -8 0 -5 5 -5 12 -1 15 9 197 11 224 2 12 -4 25
-4 28 -1 9 9 426 10 452 1 12 -4 25 -4 28 -1 9 10 216 9 216 0 0 -5 5 -5 12
-1 16 10 308 11 308 1 0 -5 5 -5 12 -1 15 9 197 11 224 2 12 -4 25 -4 28 -1 9
9 426 10 452 1 12 -4 25 -4 28 -1 9 10 216 9 216 0 0 -5 5 -5 12 -1 16 10 178
11 178 1 0 -5 5 -5 12 -1 16 10 148 11 148 1 0 -5 5 -5 12 -1 15 10 221 10
236 0 7 -4 12 -4 12 1 0 4 49 8 110 8 60 0 110 -4 110 -8 0 -5 5 -5 12 -1 16
10 148 11 148 1 0 -5 5 -5 12 -1 15 10 221 10 236 0 7 -4 12 -4 12 1 0 10 262
9 278 -1 6 -3 13 -3 15 1 6 9 140 8 155 -1 6 -3 10 -75 10 -173 0 -93 0 -178
1 -189 l1 -22 451 0 c247 0 453 -2 456 -5 3 -3 5 -311 5 -685 l0 -679 486 0
c268 0 492 -2 497 -3 6 -1 12 -1 15 0 15 6 279 4 297 -2 12 -4 25 -3 28 3 4 5
11 7 16 4 5 -4 9 261 9 684 l0 691 -415 0 -415 0 -2 672 -3 673 -710 0 -710 0
-3 178 -2 177 -2509 0 -2509 0 0 -162z"/>
<path d="M2564 11791 c-2 -2 -4 -2377 -4 -5276 l0 -5272 274 1 c237 1 275 -1
278 -14 2 -8 3 -156 3 -327 -1 -208 3 -314 10 -316 5 -1 685 -3 1510 -2 l1500
0 2 290 c1 160 2 308 3 330 l0 40 278 -1 279 -1 1 2371 c0 1304 1 2381 1 2394
l1 22 945 0 945 0 1 193 c0 105 0 249 -1 319 l-1 126 464 0 c256 0 469 2 473
5 5 3 9 170 8 371 l-1 366 91 1 c50 0 216 0 369 0 152 1 278 4 278 7 1 4 2
643 3 1420 1 924 -2 1416 -9 1420 -5 3 -172 6 -370 7 l-360 0 -2 435 c-1 239
-2 440 -2 446 -1 8 -136 11 -458 12 -252 0 -464 1 -470 1 -10 1 -13 75 -15
318 l-3 318 -3008 0 c-1655 0 -3011 -2 -3013 -4z"/>
</g>
</svg>
